<mxfile host="app.diagrams.net" modified="2022-09-22T16:54:23.265Z" agent="5.0 (Windows NT 10.0; Win64; x64) AppleWebKit/537.36 (KHTML, like Gecko) Chrome/105.0.0.0 Safari/537.36" etag="8HMYgNwBtwqcHfj5RXbh" version="20.3.3" type="github">
  <diagram id="frmk01e6OhTMQ0rjIX1m" name="Página-1">
    <mxGraphModel dx="2249" dy="1963" grid="1" gridSize="10" guides="1" tooltips="1" connect="1" arrows="1" fold="1" page="1" pageScale="1" pageWidth="827" pageHeight="1169" math="0" shadow="0">
      <root>
        <mxCell id="0" />
        <mxCell id="1" parent="0" />
        <mxCell id="WXsgNVBY0Njwc3MzDoKF-1" value="sucursal" style="whiteSpace=wrap;html=1;align=center;fillColor=#dae8fc;strokeColor=#6c8ebf;" vertex="1" parent="1">
          <mxGeometry x="60" y="130" width="100" height="40" as="geometry" />
        </mxCell>
        <mxCell id="WXsgNVBY0Njwc3MzDoKF-3" value="empleados" style="rounded=1;arcSize=10;whiteSpace=wrap;html=1;align=center;fillColor=#dae8fc;strokeColor=#6c8ebf;" vertex="1" parent="1">
          <mxGeometry x="60" y="370" width="100" height="40" as="geometry" />
        </mxCell>
        <mxCell id="WXsgNVBY0Njwc3MzDoKF-4" value="RESVISTAS" style="rounded=1;arcSize=10;whiteSpace=wrap;html=1;align=center;fillColor=#dae8fc;strokeColor=#6c8ebf;" vertex="1" parent="1">
          <mxGeometry x="560" y="130" width="100" height="40" as="geometry" />
        </mxCell>
        <mxCell id="WXsgNVBY0Njwc3MzDoKF-5" value="domicilio" style="ellipse;whiteSpace=wrap;html=1;align=center;" vertex="1" parent="1">
          <mxGeometry x="-200" y="40" width="100" height="40" as="geometry" />
        </mxCell>
        <mxCell id="WXsgNVBY0Njwc3MzDoKF-6" value="numero telefonico" style="ellipse;whiteSpace=wrap;html=1;align=center;" vertex="1" parent="1">
          <mxGeometry x="-210" y="130" width="100" height="40" as="geometry" />
        </mxCell>
        <mxCell id="WXsgNVBY0Njwc3MzDoKF-10" value="código de sucursal" style="ellipse;whiteSpace=wrap;html=1;align=center;fontStyle=4;fillColor=#d5e8d4;strokeColor=#82b366;" vertex="1" parent="1">
          <mxGeometry x="-40" y="30" width="100" height="40" as="geometry" />
        </mxCell>
        <mxCell id="WXsgNVBY0Njwc3MzDoKF-11" value="" style="endArrow=none;html=1;rounded=0;exitX=1;exitY=1;exitDx=0;exitDy=0;entryX=0;entryY=0;entryDx=0;entryDy=0;" edge="1" parent="1" source="WXsgNVBY0Njwc3MzDoKF-10" target="WXsgNVBY0Njwc3MzDoKF-1">
          <mxGeometry width="50" height="50" relative="1" as="geometry">
            <mxPoint x="130" y="160" as="sourcePoint" />
            <mxPoint x="180" y="110" as="targetPoint" />
          </mxGeometry>
        </mxCell>
        <mxCell id="WXsgNVBY0Njwc3MzDoKF-12" value="" style="endArrow=none;html=1;rounded=0;entryX=0;entryY=0.25;entryDx=0;entryDy=0;exitX=1.03;exitY=0.7;exitDx=0;exitDy=0;exitPerimeter=0;" edge="1" parent="1" source="WXsgNVBY0Njwc3MzDoKF-5" target="WXsgNVBY0Njwc3MzDoKF-1">
          <mxGeometry width="50" height="50" relative="1" as="geometry">
            <mxPoint x="60" y="200" as="sourcePoint" />
            <mxPoint x="110" y="150" as="targetPoint" />
          </mxGeometry>
        </mxCell>
        <mxCell id="WXsgNVBY0Njwc3MzDoKF-13" value="" style="endArrow=none;html=1;rounded=0;entryX=0;entryY=0.5;entryDx=0;entryDy=0;exitX=1;exitY=0.5;exitDx=0;exitDy=0;" edge="1" parent="1" source="WXsgNVBY0Njwc3MzDoKF-6" target="WXsgNVBY0Njwc3MzDoKF-1">
          <mxGeometry width="50" height="50" relative="1" as="geometry">
            <mxPoint x="30" y="205" as="sourcePoint" />
            <mxPoint x="80" y="155" as="targetPoint" />
          </mxGeometry>
        </mxCell>
        <mxCell id="WXsgNVBY0Njwc3MzDoKF-17" value="nombre" style="ellipse;whiteSpace=wrap;html=1;align=center;" vertex="1" parent="1">
          <mxGeometry x="-130" y="400" width="100" height="40" as="geometry" />
        </mxCell>
        <mxCell id="WXsgNVBY0Njwc3MzDoKF-18" value="apellido" style="ellipse;whiteSpace=wrap;html=1;align=center;" vertex="1" parent="1">
          <mxGeometry x="-50" y="490" width="100" height="40" as="geometry" />
        </mxCell>
        <mxCell id="WXsgNVBY0Njwc3MzDoKF-19" value="TELEFONO" style="ellipse;whiteSpace=wrap;html=1;align=center;" vertex="1" parent="1">
          <mxGeometry x="50" y="520" width="100" height="40" as="geometry" />
        </mxCell>
        <mxCell id="WXsgNVBY0Njwc3MzDoKF-20" value="RFC" style="ellipse;whiteSpace=wrap;html=1;align=center;fontStyle=4;fillColor=#d5e8d4;strokeColor=#82b366;" vertex="1" parent="1">
          <mxGeometry x="190" y="480" width="100" height="40" as="geometry" />
        </mxCell>
        <mxCell id="WXsgNVBY0Njwc3MzDoKF-21" value="" style="endArrow=none;html=1;rounded=0;entryX=0;entryY=0.5;entryDx=0;entryDy=0;exitX=1;exitY=0;exitDx=0;exitDy=0;" edge="1" parent="1" source="WXsgNVBY0Njwc3MzDoKF-17" target="WXsgNVBY0Njwc3MzDoKF-3">
          <mxGeometry width="50" height="50" relative="1" as="geometry">
            <mxPoint x="60" y="410" as="sourcePoint" />
            <mxPoint x="110" y="360" as="targetPoint" />
          </mxGeometry>
        </mxCell>
        <mxCell id="WXsgNVBY0Njwc3MzDoKF-22" value="" style="endArrow=none;html=1;rounded=0;exitX=0.66;exitY=-0.075;exitDx=0;exitDy=0;exitPerimeter=0;entryX=0;entryY=1;entryDx=0;entryDy=0;" edge="1" parent="1" source="WXsgNVBY0Njwc3MzDoKF-18" target="WXsgNVBY0Njwc3MzDoKF-3">
          <mxGeometry width="50" height="50" relative="1" as="geometry">
            <mxPoint x="90" y="470" as="sourcePoint" />
            <mxPoint x="140" y="420" as="targetPoint" />
          </mxGeometry>
        </mxCell>
        <mxCell id="WXsgNVBY0Njwc3MzDoKF-23" value="" style="endArrow=none;html=1;rounded=0;exitX=0.42;exitY=-0.1;exitDx=0;exitDy=0;exitPerimeter=0;entryX=0.41;entryY=1.05;entryDx=0;entryDy=0;entryPerimeter=0;" edge="1" parent="1" source="WXsgNVBY0Njwc3MzDoKF-19" target="WXsgNVBY0Njwc3MzDoKF-3">
          <mxGeometry width="50" height="50" relative="1" as="geometry">
            <mxPoint x="180" y="470" as="sourcePoint" />
            <mxPoint x="230" y="420" as="targetPoint" />
          </mxGeometry>
        </mxCell>
        <mxCell id="WXsgNVBY0Njwc3MzDoKF-24" value="" style="endArrow=none;html=1;rounded=0;exitX=0;exitY=0;exitDx=0;exitDy=0;entryX=1;entryY=1;entryDx=0;entryDy=0;" edge="1" parent="1" source="WXsgNVBY0Njwc3MzDoKF-20" target="WXsgNVBY0Njwc3MzDoKF-3">
          <mxGeometry width="50" height="50" relative="1" as="geometry">
            <mxPoint x="280" y="430" as="sourcePoint" />
            <mxPoint x="330" y="380" as="targetPoint" />
          </mxGeometry>
        </mxCell>
        <mxCell id="WXsgNVBY0Njwc3MzDoKF-25" value="tiene" style="shape=rhombus;perimeter=rhombusPerimeter;whiteSpace=wrap;html=1;align=center;fillColor=#f8cecc;strokeColor=#b85450;" vertex="1" parent="1">
          <mxGeometry x="50" y="240" width="120" height="60" as="geometry" />
        </mxCell>
        <mxCell id="WXsgNVBY0Njwc3MzDoKF-32" value="registro" style="shape=rhombus;perimeter=rhombusPerimeter;whiteSpace=wrap;html=1;align=center;fillColor=#f8cecc;strokeColor=#b85450;" vertex="1" parent="1">
          <mxGeometry x="330" y="120" width="120" height="60" as="geometry" />
        </mxCell>
        <mxCell id="WXsgNVBY0Njwc3MzDoKF-40" value="tipo" style="ellipse;whiteSpace=wrap;html=1;align=center;" vertex="1" parent="1">
          <mxGeometry x="760" y="90" width="100" height="40" as="geometry" />
        </mxCell>
        <mxCell id="WXsgNVBY0Njwc3MzDoKF-41" value="titulo" style="ellipse;whiteSpace=wrap;html=1;align=center;" vertex="1" parent="1">
          <mxGeometry x="650" y="200" width="100" height="40" as="geometry" />
        </mxCell>
        <mxCell id="WXsgNVBY0Njwc3MzDoKF-42" value="numero de registro" style="ellipse;whiteSpace=wrap;html=1;align=center;fontStyle=4;fillColor=#d5e8d4;strokeColor=#82b366;" vertex="1" parent="1">
          <mxGeometry x="500" y="30" width="100" height="40" as="geometry" />
        </mxCell>
        <mxCell id="WXsgNVBY0Njwc3MzDoKF-43" value="articulos" style="shape=rhombus;perimeter=rhombusPerimeter;whiteSpace=wrap;html=1;align=center;fillColor=#f8cecc;strokeColor=#b85450;" vertex="1" parent="1">
          <mxGeometry x="560" y="330" width="120" height="60" as="geometry" />
        </mxCell>
        <mxCell id="WXsgNVBY0Njwc3MzDoKF-44" value="periodistas" style="whiteSpace=wrap;html=1;align=center;fillColor=#dae8fc;strokeColor=#6c8ebf;" vertex="1" parent="1">
          <mxGeometry x="580" y="440" width="100" height="40" as="geometry" />
        </mxCell>
        <mxCell id="WXsgNVBY0Njwc3MzDoKF-45" value="nombre" style="ellipse;whiteSpace=wrap;html=1;align=center;" vertex="1" parent="1">
          <mxGeometry x="440" y="520" width="100" height="40" as="geometry" />
        </mxCell>
        <mxCell id="WXsgNVBY0Njwc3MzDoKF-46" value="apellido" style="ellipse;whiteSpace=wrap;html=1;align=center;" vertex="1" parent="1">
          <mxGeometry x="510" y="565" width="100" height="40" as="geometry" />
        </mxCell>
        <mxCell id="WXsgNVBY0Njwc3MzDoKF-47" value="teléfono" style="ellipse;whiteSpace=wrap;html=1;align=center;" vertex="1" parent="1">
          <mxGeometry x="650" y="570" width="100" height="40" as="geometry" />
        </mxCell>
        <mxCell id="WXsgNVBY0Njwc3MzDoKF-48" value="RFC" style="ellipse;whiteSpace=wrap;html=1;align=center;fillColor=#fff2cc;strokeColor=#d6b656;" vertex="1" parent="1">
          <mxGeometry x="780" y="530" width="100" height="40" as="geometry" />
        </mxCell>
        <mxCell id="WXsgNVBY0Njwc3MzDoKF-50" value="" style="endArrow=none;html=1;rounded=0;exitX=1;exitY=0;exitDx=0;exitDy=0;entryX=0;entryY=0.5;entryDx=0;entryDy=0;" edge="1" parent="1" source="WXsgNVBY0Njwc3MzDoKF-45" target="WXsgNVBY0Njwc3MzDoKF-44">
          <mxGeometry width="50" height="50" relative="1" as="geometry">
            <mxPoint x="520" y="485" as="sourcePoint" />
            <mxPoint x="570" y="435" as="targetPoint" />
          </mxGeometry>
        </mxCell>
        <mxCell id="WXsgNVBY0Njwc3MzDoKF-51" value="" style="endArrow=none;html=1;rounded=0;exitX=0.57;exitY=-0.05;exitDx=0;exitDy=0;exitPerimeter=0;entryX=0;entryY=1;entryDx=0;entryDy=0;" edge="1" parent="1" source="WXsgNVBY0Njwc3MzDoKF-46" target="WXsgNVBY0Njwc3MzDoKF-44">
          <mxGeometry width="50" height="50" relative="1" as="geometry">
            <mxPoint x="530" y="550" as="sourcePoint" />
            <mxPoint x="580" y="500" as="targetPoint" />
          </mxGeometry>
        </mxCell>
        <mxCell id="WXsgNVBY0Njwc3MzDoKF-52" value="" style="endArrow=none;html=1;rounded=0;exitX=0.39;exitY=-0.05;exitDx=0;exitDy=0;entryX=0.57;entryY=1.05;entryDx=0;entryDy=0;entryPerimeter=0;exitPerimeter=0;" edge="1" parent="1" source="WXsgNVBY0Njwc3MzDoKF-47" target="WXsgNVBY0Njwc3MzDoKF-44">
          <mxGeometry width="50" height="50" relative="1" as="geometry">
            <mxPoint x="595" y="540" as="sourcePoint" />
            <mxPoint x="645" y="490" as="targetPoint" />
          </mxGeometry>
        </mxCell>
        <mxCell id="WXsgNVBY0Njwc3MzDoKF-53" value="" style="endArrow=none;html=1;rounded=0;exitX=1;exitY=1;exitDx=0;exitDy=0;entryX=0.2;entryY=0;entryDx=0;entryDy=0;entryPerimeter=0;" edge="1" parent="1" source="WXsgNVBY0Njwc3MzDoKF-44" target="WXsgNVBY0Njwc3MzDoKF-48">
          <mxGeometry width="50" height="50" relative="1" as="geometry">
            <mxPoint x="660" y="525" as="sourcePoint" />
            <mxPoint x="710" y="475" as="targetPoint" />
          </mxGeometry>
        </mxCell>
        <mxCell id="WXsgNVBY0Njwc3MzDoKF-54" value="" style="endArrow=none;html=1;rounded=0;exitX=1;exitY=0.25;exitDx=0;exitDy=0;" edge="1" parent="1" source="WXsgNVBY0Njwc3MzDoKF-44" target="WXsgNVBY0Njwc3MzDoKF-109">
          <mxGeometry width="50" height="50" relative="1" as="geometry">
            <mxPoint x="680" y="450" as="sourcePoint" />
            <mxPoint x="761" y="453" as="targetPoint" />
          </mxGeometry>
        </mxCell>
        <mxCell id="WXsgNVBY0Njwc3MzDoKF-57" value="" style="endArrow=none;html=1;rounded=0;entryX=0.5;entryY=1;entryDx=0;entryDy=0;exitX=0.4;exitY=0;exitDx=0;exitDy=0;exitPerimeter=0;" edge="1" parent="1" source="WXsgNVBY0Njwc3MzDoKF-44" target="WXsgNVBY0Njwc3MzDoKF-43">
          <mxGeometry width="50" height="50" relative="1" as="geometry">
            <mxPoint x="530" y="440" as="sourcePoint" />
            <mxPoint x="580" y="390" as="targetPoint" />
          </mxGeometry>
        </mxCell>
        <mxCell id="WXsgNVBY0Njwc3MzDoKF-58" value="" style="endArrow=none;html=1;rounded=0;exitX=0.33;exitY=-0.05;exitDx=0;exitDy=0;exitPerimeter=0;entryX=0.5;entryY=1;entryDx=0;entryDy=0;" edge="1" parent="1" source="WXsgNVBY0Njwc3MzDoKF-4" target="WXsgNVBY0Njwc3MzDoKF-42">
          <mxGeometry width="50" height="50" relative="1" as="geometry">
            <mxPoint x="590" y="160" as="sourcePoint" />
            <mxPoint x="640" y="110" as="targetPoint" />
          </mxGeometry>
        </mxCell>
        <mxCell id="WXsgNVBY0Njwc3MzDoKF-60" value="" style="endArrow=none;html=1;rounded=0;exitX=1;exitY=0.5;exitDx=0;exitDy=0;entryX=0;entryY=0.5;entryDx=0;entryDy=0;" edge="1" parent="1" source="WXsgNVBY0Njwc3MzDoKF-4" target="WXsgNVBY0Njwc3MzDoKF-40">
          <mxGeometry width="50" height="50" relative="1" as="geometry">
            <mxPoint x="660" y="190" as="sourcePoint" />
            <mxPoint x="710" y="140" as="targetPoint" />
          </mxGeometry>
        </mxCell>
        <mxCell id="WXsgNVBY0Njwc3MzDoKF-61" value="" style="endArrow=none;html=1;rounded=0;exitX=0.9;exitY=1;exitDx=0;exitDy=0;exitPerimeter=0;" edge="1" parent="1" source="WXsgNVBY0Njwc3MzDoKF-4" target="WXsgNVBY0Njwc3MzDoKF-41">
          <mxGeometry width="50" height="50" relative="1" as="geometry">
            <mxPoint x="640" y="260" as="sourcePoint" />
            <mxPoint x="690" y="210" as="targetPoint" />
          </mxGeometry>
        </mxCell>
        <mxCell id="WXsgNVBY0Njwc3MzDoKF-62" value="" style="endArrow=none;html=1;rounded=0;exitX=0.5;exitY=1;exitDx=0;exitDy=0;entryX=0.5;entryY=0;entryDx=0;entryDy=0;" edge="1" parent="1" source="WXsgNVBY0Njwc3MzDoKF-1" target="WXsgNVBY0Njwc3MzDoKF-25">
          <mxGeometry relative="1" as="geometry">
            <mxPoint x="60" y="210" as="sourcePoint" />
            <mxPoint x="220" y="210" as="targetPoint" />
          </mxGeometry>
        </mxCell>
        <mxCell id="WXsgNVBY0Njwc3MzDoKF-63" value="1" style="resizable=0;html=1;align=right;verticalAlign=bottom;" connectable="0" vertex="1" parent="WXsgNVBY0Njwc3MzDoKF-62">
          <mxGeometry x="1" relative="1" as="geometry" />
        </mxCell>
        <mxCell id="WXsgNVBY0Njwc3MzDoKF-64" value="" style="endArrow=none;html=1;rounded=0;exitX=0.5;exitY=0;exitDx=0;exitDy=0;entryX=0.5;entryY=1;entryDx=0;entryDy=0;" edge="1" parent="1" source="WXsgNVBY0Njwc3MzDoKF-3" target="WXsgNVBY0Njwc3MzDoKF-25">
          <mxGeometry relative="1" as="geometry">
            <mxPoint x="90" y="350" as="sourcePoint" />
            <mxPoint x="110" y="320" as="targetPoint" />
          </mxGeometry>
        </mxCell>
        <mxCell id="WXsgNVBY0Njwc3MzDoKF-65" value="N" style="resizable=0;html=1;align=right;verticalAlign=bottom;" connectable="0" vertex="1" parent="WXsgNVBY0Njwc3MzDoKF-64">
          <mxGeometry x="1" relative="1" as="geometry" />
        </mxCell>
        <mxCell id="WXsgNVBY0Njwc3MzDoKF-67" value="" style="endArrow=none;html=1;rounded=0;" edge="1" parent="1">
          <mxGeometry relative="1" as="geometry">
            <mxPoint x="170" y="149.5" as="sourcePoint" />
            <mxPoint x="330" y="149.5" as="targetPoint" />
          </mxGeometry>
        </mxCell>
        <mxCell id="WXsgNVBY0Njwc3MzDoKF-68" value="M" style="resizable=0;html=1;align=left;verticalAlign=bottom;" connectable="0" vertex="1" parent="WXsgNVBY0Njwc3MzDoKF-67">
          <mxGeometry x="-1" relative="1" as="geometry" />
        </mxCell>
        <mxCell id="WXsgNVBY0Njwc3MzDoKF-69" value="N" style="resizable=0;html=1;align=right;verticalAlign=bottom;" connectable="0" vertex="1" parent="WXsgNVBY0Njwc3MzDoKF-67">
          <mxGeometry x="1" relative="1" as="geometry" />
        </mxCell>
        <mxCell id="WXsgNVBY0Njwc3MzDoKF-72" value="código de sucursal" style="ellipse;whiteSpace=wrap;html=1;align=center;fillColor=#fff2cc;strokeColor=#d6b656;" vertex="1" parent="1">
          <mxGeometry x="210" y="400" width="100" height="40" as="geometry" />
        </mxCell>
        <mxCell id="WXsgNVBY0Njwc3MzDoKF-73" value="" style="endArrow=none;html=1;rounded=0;exitX=1;exitY=0.5;exitDx=0;exitDy=0;entryX=0;entryY=0.25;entryDx=0;entryDy=0;entryPerimeter=0;" edge="1" parent="1" source="WXsgNVBY0Njwc3MzDoKF-3" target="WXsgNVBY0Njwc3MzDoKF-72">
          <mxGeometry width="50" height="50" relative="1" as="geometry">
            <mxPoint x="170" y="390" as="sourcePoint" />
            <mxPoint x="220" y="340" as="targetPoint" />
          </mxGeometry>
        </mxCell>
        <mxCell id="WXsgNVBY0Njwc3MzDoKF-74" value="especialidad periodista" style="ellipse;whiteSpace=wrap;html=1;align=center;fillColor=#fff2cc;strokeColor=#d6b656;" vertex="1" parent="1">
          <mxGeometry x="160" y="545" width="100" height="40" as="geometry" />
        </mxCell>
        <mxCell id="WXsgNVBY0Njwc3MzDoKF-75" value="" style="endArrow=none;html=1;rounded=0;exitX=0.28;exitY=0.1;exitDx=0;exitDy=0;exitPerimeter=0;entryX=0.75;entryY=1;entryDx=0;entryDy=0;" edge="1" parent="1" source="WXsgNVBY0Njwc3MzDoKF-74" target="WXsgNVBY0Njwc3MzDoKF-3">
          <mxGeometry width="50" height="50" relative="1" as="geometry">
            <mxPoint x="150" y="535" as="sourcePoint" />
            <mxPoint x="200" y="485" as="targetPoint" />
          </mxGeometry>
        </mxCell>
        <mxCell id="WXsgNVBY0Njwc3MzDoKF-76" value="código de sucursal" style="ellipse;whiteSpace=wrap;html=1;align=center;fillColor=#fff2cc;strokeColor=#d6b656;" vertex="1" parent="1">
          <mxGeometry x="260" y="200" width="100" height="40" as="geometry" />
        </mxCell>
        <mxCell id="WXsgNVBY0Njwc3MzDoKF-80" value="numero de registro" style="ellipse;whiteSpace=wrap;html=1;align=center;fillColor=#fff2cc;strokeColor=#d6b656;" vertex="1" parent="1">
          <mxGeometry x="410" y="200" width="100" height="40" as="geometry" />
        </mxCell>
        <mxCell id="WXsgNVBY0Njwc3MzDoKF-81" value="" style="endArrow=none;html=1;rounded=0;exitX=1;exitY=0.5;exitDx=0;exitDy=0;entryX=0;entryY=0.5;entryDx=0;entryDy=0;" edge="1" parent="1" source="WXsgNVBY0Njwc3MzDoKF-32" target="WXsgNVBY0Njwc3MzDoKF-4">
          <mxGeometry width="50" height="50" relative="1" as="geometry">
            <mxPoint x="470" y="160" as="sourcePoint" />
            <mxPoint x="520" y="110" as="targetPoint" />
          </mxGeometry>
        </mxCell>
        <mxCell id="WXsgNVBY0Njwc3MzDoKF-82" value="" style="endArrow=none;html=1;rounded=0;exitX=0.75;exitY=0;exitDx=0;exitDy=0;exitPerimeter=0;entryX=0.317;entryY=0.817;entryDx=0;entryDy=0;entryPerimeter=0;" edge="1" parent="1" source="WXsgNVBY0Njwc3MzDoKF-76" target="WXsgNVBY0Njwc3MzDoKF-32">
          <mxGeometry width="50" height="50" relative="1" as="geometry">
            <mxPoint x="320" y="210" as="sourcePoint" />
            <mxPoint x="370" y="160" as="targetPoint" />
          </mxGeometry>
        </mxCell>
        <mxCell id="WXsgNVBY0Njwc3MzDoKF-83" value="" style="endArrow=none;html=1;rounded=0;exitX=1;exitY=1;exitDx=0;exitDy=0;entryX=0.3;entryY=0;entryDx=0;entryDy=0;entryPerimeter=0;" edge="1" parent="1" source="WXsgNVBY0Njwc3MzDoKF-32" target="WXsgNVBY0Njwc3MzDoKF-80">
          <mxGeometry width="50" height="50" relative="1" as="geometry">
            <mxPoint x="420" y="200" as="sourcePoint" />
            <mxPoint x="470" y="150" as="targetPoint" />
          </mxGeometry>
        </mxCell>
        <mxCell id="WXsgNVBY0Njwc3MzDoKF-84" value="" style="endArrow=none;html=1;rounded=0;entryX=0.5;entryY=0;entryDx=0;entryDy=0;exitX=0.57;exitY=1.075;exitDx=0;exitDy=0;exitPerimeter=0;" edge="1" parent="1" source="WXsgNVBY0Njwc3MzDoKF-4" target="WXsgNVBY0Njwc3MzDoKF-43">
          <mxGeometry relative="1" as="geometry">
            <mxPoint x="540" y="269.5" as="sourcePoint" />
            <mxPoint x="700" y="269.5" as="targetPoint" />
          </mxGeometry>
        </mxCell>
        <mxCell id="WXsgNVBY0Njwc3MzDoKF-85" value="M" style="resizable=0;html=1;align=left;verticalAlign=bottom;" connectable="0" vertex="1" parent="WXsgNVBY0Njwc3MzDoKF-84">
          <mxGeometry x="-1" relative="1" as="geometry" />
        </mxCell>
        <mxCell id="WXsgNVBY0Njwc3MzDoKF-86" value="N" style="resizable=0;html=1;align=right;verticalAlign=bottom;" connectable="0" vertex="1" parent="WXsgNVBY0Njwc3MzDoKF-84">
          <mxGeometry x="1" relative="1" as="geometry" />
        </mxCell>
        <mxCell id="WXsgNVBY0Njwc3MzDoKF-88" value="secciones" style="whiteSpace=wrap;html=1;align=center;fillColor=#dae8fc;strokeColor=#6c8ebf;" vertex="1" parent="1">
          <mxGeometry x="1090" y="140" width="100" height="40" as="geometry" />
        </mxCell>
        <mxCell id="WXsgNVBY0Njwc3MzDoKF-89" value="ejemplares" style="whiteSpace=wrap;html=1;align=center;fillColor=#dae8fc;strokeColor=#6c8ebf;" vertex="1" parent="1">
          <mxGeometry x="1100" y="360" width="100" height="40" as="geometry" />
        </mxCell>
        <mxCell id="WXsgNVBY0Njwc3MzDoKF-90" value="guardad" style="shape=rhombus;perimeter=rhombusPerimeter;whiteSpace=wrap;html=1;align=center;fillColor=#f8cecc;strokeColor=#b85450;" vertex="1" parent="1">
          <mxGeometry x="890" y="130" width="120" height="60" as="geometry" />
        </mxCell>
        <mxCell id="WXsgNVBY0Njwc3MzDoKF-91" value="periocidad" style="ellipse;whiteSpace=wrap;html=1;align=center;" vertex="1" parent="1">
          <mxGeometry x="640" y="50" width="100" height="40" as="geometry" />
        </mxCell>
        <mxCell id="WXsgNVBY0Njwc3MzDoKF-93" value="extension" style="ellipse;whiteSpace=wrap;html=1;align=center;fontStyle=4;fillColor=#d5e8d4;strokeColor=#82b366;" vertex="1" parent="1">
          <mxGeometry x="1250" y="140" width="100" height="40" as="geometry" />
        </mxCell>
        <mxCell id="WXsgNVBY0Njwc3MzDoKF-96" value="información de ejemplar" style="shape=rhombus;perimeter=rhombusPerimeter;whiteSpace=wrap;html=1;align=center;fillColor=#f8cecc;strokeColor=#b85450;" vertex="1" parent="1">
          <mxGeometry x="1090" y="250" width="120" height="60" as="geometry" />
        </mxCell>
        <mxCell id="WXsgNVBY0Njwc3MzDoKF-97" value="" style="endArrow=none;html=1;rounded=0;entryX=0;entryY=0.5;entryDx=0;entryDy=0;exitX=1;exitY=0.75;exitDx=0;exitDy=0;" edge="1" parent="1" source="WXsgNVBY0Njwc3MzDoKF-4" target="WXsgNVBY0Njwc3MzDoKF-90">
          <mxGeometry width="50" height="50" relative="1" as="geometry">
            <mxPoint x="760" y="190" as="sourcePoint" />
            <mxPoint x="810" y="140" as="targetPoint" />
          </mxGeometry>
        </mxCell>
        <mxCell id="WXsgNVBY0Njwc3MzDoKF-98" value="" style="endArrow=none;html=1;rounded=0;entryX=0;entryY=0.5;entryDx=0;entryDy=0;exitX=1;exitY=0.5;exitDx=0;exitDy=0;" edge="1" parent="1" source="WXsgNVBY0Njwc3MzDoKF-90" target="WXsgNVBY0Njwc3MzDoKF-88">
          <mxGeometry width="50" height="50" relative="1" as="geometry">
            <mxPoint x="1030" y="210" as="sourcePoint" />
            <mxPoint x="1080" y="160" as="targetPoint" />
          </mxGeometry>
        </mxCell>
        <mxCell id="WXsgNVBY0Njwc3MzDoKF-101" value="" style="endArrow=none;html=1;rounded=0;entryX=0.5;entryY=1;entryDx=0;entryDy=0;exitX=0.5;exitY=0;exitDx=0;exitDy=0;" edge="1" parent="1" source="WXsgNVBY0Njwc3MzDoKF-88">
          <mxGeometry width="50" height="50" relative="1" as="geometry">
            <mxPoint x="1100" y="150" as="sourcePoint" />
            <mxPoint x="1140" y="100" as="targetPoint" />
          </mxGeometry>
        </mxCell>
        <mxCell id="WXsgNVBY0Njwc3MzDoKF-102" value="" style="endArrow=none;html=1;rounded=0;entryX=0;entryY=0.5;entryDx=0;entryDy=0;exitX=1;exitY=0.5;exitDx=0;exitDy=0;" edge="1" parent="1" source="WXsgNVBY0Njwc3MzDoKF-88" target="WXsgNVBY0Njwc3MzDoKF-93">
          <mxGeometry width="50" height="50" relative="1" as="geometry">
            <mxPoint x="1160" y="190" as="sourcePoint" />
            <mxPoint x="1210" y="140" as="targetPoint" />
          </mxGeometry>
        </mxCell>
        <mxCell id="WXsgNVBY0Njwc3MzDoKF-103" value="numero de paguinas" style="ellipse;whiteSpace=wrap;html=1;align=center;" vertex="1" parent="1">
          <mxGeometry x="1010" y="440" width="100" height="40" as="geometry" />
        </mxCell>
        <mxCell id="WXsgNVBY0Njwc3MzDoKF-105" value="ejemplares vendidos" style="ellipse;whiteSpace=wrap;html=1;align=center;" vertex="1" parent="1">
          <mxGeometry x="1170" y="450" width="100" height="40" as="geometry" />
        </mxCell>
        <mxCell id="WXsgNVBY0Njwc3MzDoKF-106" value="" style="endArrow=none;html=1;rounded=0;entryX=0;entryY=0.5;entryDx=0;entryDy=0;exitX=1;exitY=0.5;exitDx=0;exitDy=0;" edge="1" parent="1" target="WXsgNVBY0Njwc3MzDoKF-89">
          <mxGeometry width="50" height="50" relative="1" as="geometry">
            <mxPoint x="1050" y="380" as="sourcePoint" />
            <mxPoint x="1030" y="290" as="targetPoint" />
          </mxGeometry>
        </mxCell>
        <mxCell id="WXsgNVBY0Njwc3MzDoKF-107" value="" style="endArrow=none;html=1;rounded=0;entryX=0;entryY=1;entryDx=0;entryDy=0;exitX=0.32;exitY=0;exitDx=0;exitDy=0;exitPerimeter=0;" edge="1" parent="1" source="WXsgNVBY0Njwc3MzDoKF-103" target="WXsgNVBY0Njwc3MzDoKF-89">
          <mxGeometry width="50" height="50" relative="1" as="geometry">
            <mxPoint x="1030" y="450" as="sourcePoint" />
            <mxPoint x="1080" y="400" as="targetPoint" />
          </mxGeometry>
        </mxCell>
        <mxCell id="WXsgNVBY0Njwc3MzDoKF-108" value="" style="endArrow=none;html=1;rounded=0;entryX=0.75;entryY=1;entryDx=0;entryDy=0;exitX=0;exitY=0;exitDx=0;exitDy=0;" edge="1" parent="1" source="WXsgNVBY0Njwc3MzDoKF-105" target="WXsgNVBY0Njwc3MzDoKF-89">
          <mxGeometry width="50" height="50" relative="1" as="geometry">
            <mxPoint x="1125" y="460" as="sourcePoint" />
            <mxPoint x="1175" y="410" as="targetPoint" />
          </mxGeometry>
        </mxCell>
        <mxCell id="WXsgNVBY0Njwc3MzDoKF-109" value="especialidad periodista" style="ellipse;whiteSpace=wrap;html=1;align=center;fontStyle=4;fillColor=#d5e8d4;strokeColor=#82b366;" vertex="1" parent="1">
          <mxGeometry x="760" y="440" width="100" height="40" as="geometry" />
        </mxCell>
        <mxCell id="WXsgNVBY0Njwc3MzDoKF-110" value="" style="endArrow=none;html=1;rounded=0;exitX=0.75;exitY=0;exitDx=0;exitDy=0;" edge="1" parent="1" source="WXsgNVBY0Njwc3MzDoKF-4" target="WXsgNVBY0Njwc3MzDoKF-91">
          <mxGeometry width="50" height="50" relative="1" as="geometry">
            <mxPoint x="640" y="135" as="sourcePoint" />
            <mxPoint x="690" y="85" as="targetPoint" />
          </mxGeometry>
        </mxCell>
        <mxCell id="WXsgNVBY0Njwc3MzDoKF-111" value="fecha" style="ellipse;whiteSpace=wrap;html=1;align=center;fontStyle=4;fillColor=#d5e8d4;strokeColor=#82b366;" vertex="1" parent="1">
          <mxGeometry x="950" y="360" width="100" height="40" as="geometry" />
        </mxCell>
        <mxCell id="WXsgNVBY0Njwc3MzDoKF-113" value="" style="endArrow=none;html=1;rounded=0;exitX=0.5;exitY=1;exitDx=0;exitDy=0;entryX=0.5;entryY=0;entryDx=0;entryDy=0;" edge="1" parent="1" source="WXsgNVBY0Njwc3MzDoKF-96" target="WXsgNVBY0Njwc3MzDoKF-89">
          <mxGeometry relative="1" as="geometry">
            <mxPoint x="1030" y="340" as="sourcePoint" />
            <mxPoint x="1150" y="350" as="targetPoint" />
          </mxGeometry>
        </mxCell>
        <mxCell id="WXsgNVBY0Njwc3MzDoKF-114" value="1" style="resizable=0;html=1;align=right;verticalAlign=bottom;" connectable="0" vertex="1" parent="WXsgNVBY0Njwc3MzDoKF-113">
          <mxGeometry x="1" relative="1" as="geometry" />
        </mxCell>
        <mxCell id="WXsgNVBY0Njwc3MzDoKF-118" value="" style="endArrow=none;html=1;rounded=0;exitX=0.5;exitY=0;exitDx=0;exitDy=0;entryX=0.5;entryY=1;entryDx=0;entryDy=0;" edge="1" parent="1" source="WXsgNVBY0Njwc3MzDoKF-96" target="WXsgNVBY0Njwc3MzDoKF-88">
          <mxGeometry width="50" height="50" relative="1" as="geometry">
            <mxPoint x="1130" y="245" as="sourcePoint" />
            <mxPoint x="1180" y="195" as="targetPoint" />
          </mxGeometry>
        </mxCell>
        <mxCell id="WXsgNVBY0Njwc3MzDoKF-119" value="fecha" style="ellipse;whiteSpace=wrap;html=1;align=center;fillColor=#fff2cc;strokeColor=#d6b656;" vertex="1" parent="1">
          <mxGeometry x="590" y="-10" width="100" height="40" as="geometry" />
        </mxCell>
        <mxCell id="WXsgNVBY0Njwc3MzDoKF-120" value="extension" style="ellipse;whiteSpace=wrap;html=1;align=center;fillColor=#fff2cc;strokeColor=#d6b656;" vertex="1" parent="1">
          <mxGeometry x="750" y="30" width="100" height="40" as="geometry" />
        </mxCell>
        <mxCell id="WXsgNVBY0Njwc3MzDoKF-121" value="" style="endArrow=none;html=1;rounded=0;exitX=0.5;exitY=0;exitDx=0;exitDy=0;entryX=0.44;entryY=1.075;entryDx=0;entryDy=0;entryPerimeter=0;" edge="1" parent="1" source="WXsgNVBY0Njwc3MzDoKF-4" target="WXsgNVBY0Njwc3MzDoKF-119">
          <mxGeometry width="50" height="50" relative="1" as="geometry">
            <mxPoint x="595" y="110" as="sourcePoint" />
            <mxPoint x="645" y="60" as="targetPoint" />
          </mxGeometry>
        </mxCell>
        <mxCell id="WXsgNVBY0Njwc3MzDoKF-122" value="" style="endArrow=none;html=1;rounded=0;entryX=0;entryY=1;entryDx=0;entryDy=0;exitX=1;exitY=0;exitDx=0;exitDy=0;" edge="1" parent="1" source="WXsgNVBY0Njwc3MzDoKF-4" target="WXsgNVBY0Njwc3MzDoKF-120">
          <mxGeometry width="50" height="50" relative="1" as="geometry">
            <mxPoint x="670" y="140" as="sourcePoint" />
            <mxPoint x="710" y="100" as="targetPoint" />
          </mxGeometry>
        </mxCell>
        <mxCell id="WXsgNVBY0Njwc3MzDoKF-123" value="titulo" style="ellipse;whiteSpace=wrap;html=1;align=center;" vertex="1" parent="1">
          <mxGeometry x="1090" y="60" width="100" height="40" as="geometry" />
        </mxCell>
      </root>
    </mxGraphModel>
  </diagram>
</mxfile>
